<svg width="100" height="100" viewBox="0 0 100 100" fill="none" xmlns="http://www.w3.org/2000/svg">
<circle opacity="0.6" cx="50" cy="50" r="49" fill="#DEDEFF" fill-opacity="0.4" stroke="#3035C4" stroke-width="2"/>
<g clip-path="url(#clip0_2139_1386)">
<path d="M57.0297 29.9663H41.8154C41.4108 29.9663 41.083 30.2941 41.083 30.6987C41.083 31.1033 41.4108 31.4312 41.8154 31.4312H57.0297C57.4343 31.4312 57.7621 31.1033 57.7621 30.6987C57.7621 30.2941 57.4343 29.9663 57.0297 29.9663Z" fill="#E6514A"/>
<path fill-rule="evenodd" clip-rule="evenodd" d="M40.833 30.6987C40.833 30.1561 41.2728 29.7163 41.8154 29.7163H57.0297C57.5723 29.7163 58.0121 30.1561 58.0121 30.6987C58.0121 31.2414 57.5723 31.6812 57.0297 31.6812H41.8154C41.2728 31.6812 40.833 31.2414 40.833 30.6987ZM41.8154 30.2163C41.5489 30.2163 41.333 30.4322 41.333 30.6987C41.333 30.9652 41.5489 31.1812 41.8154 31.1812H57.0297C57.2962 31.1812 57.5121 30.9652 57.5121 30.6987C57.5121 30.4322 57.2962 30.2163 57.0297 30.2163H41.8154Z" fill="#E6514A"/>
<path d="M57.0297 34.2534H41.8154C41.4108 34.2534 41.083 34.5813 41.083 34.9858C41.083 35.3904 41.4108 35.7183 41.8154 35.7183H57.0297C57.4343 35.7183 57.7621 35.3904 57.7621 34.9858C57.7621 34.5813 57.4343 34.2534 57.0297 34.2534Z" fill="#E6514A"/>
<path fill-rule="evenodd" clip-rule="evenodd" d="M40.833 34.9858C40.833 34.4432 41.2728 34.0034 41.8154 34.0034H57.0297C57.5723 34.0034 58.0121 34.4432 58.0121 34.9858C58.0121 35.5285 57.5723 35.9683 57.0297 35.9683H41.8154C41.2728 35.9683 40.833 35.5285 40.833 34.9858ZM41.8154 34.5034C41.5489 34.5034 41.333 34.7193 41.333 34.9858C41.333 35.2524 41.5489 35.4683 41.8154 35.4683H57.0297C57.2962 35.4683 57.5121 35.2524 57.5121 34.9858C57.5121 34.7193 57.2962 34.5034 57.0297 34.5034H41.8154Z" fill="#E6514A"/>
<path d="M71.0473 50.3305H66.6991V48.2857C66.6991 45.5908 64.5066 43.3984 61.8117 43.3984H53.5773C50.8824 43.3984 48.6899 45.5908 48.6899 48.2857V50.3305H44.3418C42.1549 50.3305 40.3892 52.1036 40.3892 54.2831V71.0334C40.3892 73.2128 42.1623 74.986 44.3418 74.986H71.0474C73.2268 74.986 75 73.2129 75 71.0334V67.8596C75 67.455 74.6722 67.1271 74.2676 67.1271C73.863 67.1271 73.5352 67.455 73.5352 67.8596V71.0334C73.5352 72.4052 72.4191 73.5212 71.0474 73.5212H44.3418C42.97 73.5212 41.854 72.4052 41.854 71.0334V60.6527C43.0082 62.0759 44.7445 63.0087 46.6971 63.085V64.2032C46.6971 65.6791 47.8979 66.8799 49.3737 66.8799C50.8496 66.8799 52.0504 65.6791 52.0504 64.2032V63.09H63.3387V64.2032C63.3387 65.6791 64.5395 66.8799 66.0153 66.8799C67.4912 66.8799 68.692 65.6791 68.692 64.2032V63.085C70.6445 63.0087 72.3809 62.0759 73.5351 60.6527V64.4354C73.5351 64.84 73.8629 65.1679 74.2675 65.1679C74.6721 65.1679 74.9999 64.84 74.9999 64.4354V54.2829C74.9999 52.1042 73.235 50.3305 71.0473 50.3305ZM50.1548 48.2857C50.1548 46.3986 51.6901 44.8633 53.5773 44.8633H61.8117C63.6989 44.8633 65.2343 46.3986 65.2343 48.2857V50.3305H63.709V48.2857C63.709 47.2397 62.8579 46.3887 61.8117 46.3887H53.5773C52.5313 46.3887 51.6802 47.2397 51.6802 48.2857V50.3305H50.1548V48.2857ZM53.145 50.3305V48.2857C53.145 48.0475 53.3389 47.8535 53.5773 47.8535H61.8117C62.0501 47.8535 62.2441 48.0474 62.2441 48.2857V50.3305H53.145ZM50.5855 64.2032C50.5855 64.8715 50.042 65.415 49.3737 65.415C48.7055 65.415 48.1619 64.8715 48.1619 64.2032V61.585C48.1619 60.9167 48.7055 60.3731 49.3737 60.3731C50.042 60.3731 50.5855 60.9167 50.5855 61.585V64.2032ZM67.2272 64.2032C67.2272 64.8715 66.6836 65.415 66.0153 65.415C65.3471 65.415 64.8035 64.8715 64.8035 64.2032V62.3651C64.8035 62.3626 64.8036 62.3601 64.8036 62.3576C64.8036 62.3552 64.8035 62.3525 64.8035 62.3501V61.5851C64.8035 60.9168 65.3471 60.3732 66.0153 60.3732C66.6836 60.3732 67.2272 60.9168 67.2272 61.5851V64.2032ZM68.692 61.6186V61.5851C68.692 60.1092 67.4912 58.9084 66.0153 58.9084C64.5395 58.9084 63.3387 60.1092 63.3387 61.5851V61.6252H52.0504V61.5851C52.0504 60.1092 50.8496 58.9084 49.3737 58.9084C47.8979 58.9084 46.6971 60.1092 46.6971 61.5851V61.6186C44.0036 61.483 41.854 59.2491 41.854 56.5226V54.2829C41.854 52.9092 42.9674 51.7952 44.3418 51.7952H71.0474C72.4183 51.7952 73.5352 52.9057 73.5352 54.283V56.5226C73.5351 59.2491 71.3855 61.483 68.692 61.6186Z" fill="#3035C4"/>
<path d="M39.445 73.5208H28.622C27.4325 73.5208 26.4648 72.5531 26.4648 71.3637V36.1827C26.4648 36.0246 26.4817 35.8691 26.5147 35.7183H33.1803C34.572 35.7183 35.7042 34.586 35.7042 33.1944V26.5289C35.8551 26.496 36.0105 26.479 36.1687 26.479H61.0015C62.1909 26.479 63.1586 27.4467 63.1586 28.6361V41.2027C63.1586 41.6073 63.4864 41.9352 63.891 41.9352C64.2956 41.9352 64.6234 41.6073 64.6234 41.2027V28.6361C64.6234 26.639 62.9986 25.0142 61.0015 25.0142H36.1686C35.2011 25.0142 34.2914 25.3908 33.6073 26.0749L26.0607 33.6216C25.3767 34.3057 25 35.2152 25 36.1827V71.3637C25 73.3608 26.6248 74.9856 28.622 74.9856H39.445C39.8496 74.9856 40.1774 74.6578 40.1774 74.2532C40.1774 73.8486 39.8496 73.5208 39.445 73.5208ZM34.2393 27.5148V33.1944C34.2393 33.7783 33.7642 34.2534 33.1802 34.2534H27.5007L34.2393 27.5148Z" fill="#3035C4"/>
<path fill-rule="evenodd" clip-rule="evenodd" d="M33.4305 25.8981C34.1615 25.1671 35.1348 24.7642 36.1686 24.7642H61.0015C63.1367 24.7642 64.8734 26.5009 64.8734 28.6361V41.2027C64.8734 41.7454 64.4337 42.1852 63.891 42.1852C63.3484 42.1852 62.9086 41.7454 62.9086 41.2027V28.6361C62.9086 27.5848 62.0528 26.729 61.0015 26.729H36.1687C36.0964 26.729 36.0249 26.733 35.9542 26.7409V33.1944C35.9542 34.7241 34.71 35.9683 33.1803 35.9683H26.7267C26.7188 36.0389 26.7148 36.1104 26.7148 36.1827V71.3637C26.7148 72.4151 27.5706 73.2708 28.622 73.2708H39.445C39.9877 73.2708 40.4274 73.7106 40.4274 74.2532C40.4274 74.7959 39.9877 75.2356 39.445 75.2356H28.622C26.4867 75.2356 24.75 73.4989 24.75 71.3637V36.1827C24.75 35.1489 25.153 34.1758 25.884 33.4448L33.4305 25.8981ZM36.1686 25.2642C35.2674 25.2642 34.4213 25.6145 33.7841 26.2517L26.2375 33.7984C25.6003 34.4355 25.25 35.2815 25.25 36.1827V71.3637C25.25 73.2228 26.7629 74.7356 28.622 74.7356H39.445C39.7115 74.7356 39.9274 74.5197 39.9274 74.2532C39.9274 73.9867 39.7115 73.7708 39.445 73.7708H28.622C27.2944 73.7708 26.2148 72.6912 26.2148 71.3637V36.1827C26.2148 36.0068 26.2336 35.8334 26.2705 35.6648L26.3135 35.4683H33.1803C34.4339 35.4683 35.4542 34.448 35.4542 33.1944V26.3276L35.6509 26.2846C35.8193 26.2479 35.9926 26.229 36.1687 26.229H61.0015C62.329 26.229 63.4086 27.3086 63.4086 28.6361V41.2027C63.4086 41.4693 63.6245 41.6852 63.891 41.6852C64.1575 41.6852 64.3734 41.4693 64.3734 41.2027V28.6361C64.3734 26.777 62.8606 25.2642 61.0015 25.2642H36.1686ZM34.4893 26.9113V33.1944C34.4893 33.9164 33.9022 34.5034 33.1802 34.5034H26.8971L34.4893 26.9113ZM28.1042 34.0034H33.1802C33.6261 34.0034 33.9893 33.6402 33.9893 33.1944V28.1184L28.1042 34.0034Z" fill="#3035C4"/>
</g>
<defs>
<clipPath id="clip0_2139_1386">
<rect width="50" height="50" fill="white" transform="translate(25 25)"/>
</clipPath>
</defs>
</svg>
