<svg width="100" height="100" viewBox="0 0 100 100" fill="none" xmlns="http://www.w3.org/2000/svg">
<circle opacity="0.6" cx="50" cy="50" r="49" fill="#DEDEFF" fill-opacity="0.4" stroke="#3035C4" stroke-width="2"/>
<g clip-path="url(#clip0_2139_1367)">
<path d="M52.3418 33.2696H46.5455V26.4648H47.7663C48.1708 26.4648 48.4988 26.1369 48.4988 25.7324C48.4988 25.3279 48.1708 25 47.7663 25H32.9976C32.5931 25 32.265 25.3279 32.265 25.7324C32.265 26.1369 32.593 26.4648 32.9976 26.4648H34.2184V33.2696H28.4221C26.5351 33.2696 25 34.8046 25 36.6914V68.4221C25 70.1418 26.2753 71.5692 27.9299 71.8085V72.8027C27.9299 74.0144 28.9156 75 30.1273 75C31.3391 75 32.3248 74.0144 32.3248 72.8027V71.8438H48.4392V72.8027C48.4392 74.0144 49.4249 75 50.6366 75C51.8482 75 52.8341 74.0144 52.8341 72.8027V71.8085C54.4887 71.5691 55.764 70.1418 55.764 68.4221V42.2671C55.764 41.8626 55.436 41.5347 55.0314 41.5347C54.6269 41.5347 54.2989 41.8626 54.2989 42.2671V68.4221C54.2989 69.5012 53.421 70.379 52.3419 70.379H28.4221C27.343 70.379 26.465 69.5012 26.465 68.4221V36.6914C26.465 35.6123 27.343 34.7345 28.4221 34.7345H52.3418C53.421 34.7345 54.2988 35.6123 54.2988 36.6914V38.8384C54.2988 39.2429 54.6268 39.5708 55.0313 39.5708C55.4359 39.5708 55.7639 39.2429 55.7639 38.8384V36.6914C55.7638 34.8046 54.2287 33.2696 52.3418 33.2696V33.2696ZM51.3689 71.8438V72.8027C51.3689 73.2066 51.0403 73.5352 50.6364 73.5352C50.2325 73.5352 49.9039 73.2066 49.9039 72.8027V71.8438H51.3689ZM30.8598 71.8438V72.8027C30.8598 73.2066 30.5312 73.5352 30.1272 73.5352C29.7233 73.5352 29.3948 73.2066 29.3948 72.8027V71.8438H30.8598ZM35.6833 26.4648H45.0806V33.2696H35.6833V26.4648Z" fill="#3035C4"/>
<path fill-rule="evenodd" clip-rule="evenodd" d="M32.015 25.7324C32.015 25.1898 32.455 24.75 32.9976 24.75H47.7663C48.3088 24.75 48.7488 25.1898 48.7488 25.7324C48.7488 26.275 48.3088 26.7148 47.7663 26.7148H46.7955V33.0196H52.3418C54.3668 33.0196 56.0138 34.6665 56.0139 36.6914V38.8384C56.0139 39.381 55.574 39.8208 55.0313 39.8208C54.4887 39.8208 54.0488 39.381 54.0488 38.8384V36.6914C54.0488 35.7504 53.2829 34.9845 52.3418 34.9845H28.4221C27.481 34.9845 26.715 35.7504 26.715 36.6914V68.4221C26.715 69.3631 27.481 70.129 28.4221 70.129H52.3419C53.2829 70.129 54.0489 69.3631 54.0489 68.4221V42.2671C54.0489 41.7245 54.4888 41.2847 55.0314 41.2847C55.5741 41.2847 56.014 41.7245 56.014 42.2671V68.4221C56.014 70.1931 54.7544 71.6742 53.0841 72.0184V72.8027C53.0841 74.1525 51.9863 75.25 50.6366 75.25C49.2869 75.25 48.1892 74.1524 48.1892 72.8027V72.0938H32.5748V72.8027C32.5748 74.1524 31.4771 75.25 30.1273 75.25C28.7776 75.25 27.6799 74.1524 27.6799 72.8027V72.0184C26.0096 71.6743 24.75 70.193 24.75 68.4221V36.6914C24.75 34.6665 26.397 33.0196 28.4221 33.0196H33.9684V26.7148H32.9976C32.4549 26.7148 32.015 26.275 32.015 25.7324ZM32.9976 25.25C32.7311 25.25 32.515 25.466 32.515 25.7324C32.515 25.9988 32.731 26.2148 32.9976 26.2148H34.4684V33.5196H28.4221C26.6731 33.5196 25.25 34.9427 25.25 36.6914V68.4221C25.25 70.0156 26.4321 71.3393 27.9657 71.5611L28.1799 71.592V72.8027C28.1799 73.8763 29.0537 74.75 30.1273 74.75C31.201 74.75 32.0748 73.8763 32.0748 72.8027V71.5938H48.6892V72.8027C48.6892 73.8763 49.563 74.75 50.6366 74.75C51.7102 74.75 52.5841 73.8763 52.5841 72.8027V71.5921L52.7983 71.5611C54.3319 71.3392 55.514 70.0156 55.514 68.4221V42.2671C55.514 42.0007 55.298 41.7847 55.0314 41.7847C54.7649 41.7847 54.5489 42.0007 54.5489 42.2671V68.4221C54.5489 69.6393 53.559 70.629 52.3419 70.629H28.4221C27.2049 70.629 26.215 69.6393 26.215 68.4221V36.6914C26.215 35.4742 27.2049 34.4845 28.4221 34.4845H52.3418C53.5591 34.4845 54.5488 35.4742 54.5488 36.6914V38.8384C54.5488 39.1048 54.7648 39.3208 55.0313 39.3208C55.2979 39.3208 55.5139 39.1048 55.5139 38.8384V36.6914C55.5138 34.9427 54.0907 33.5196 52.3418 33.5196H46.2955V26.2148H47.7663C48.0328 26.2148 48.2488 25.9988 48.2488 25.7324C48.2488 25.466 48.0328 25.25 47.7663 25.25H32.9976ZM35.4333 26.2148H45.3306V33.5196H35.4333V26.2148ZM35.9333 26.7148V33.0196H44.8306V26.7148H35.9333ZM29.1448 71.5938H31.1098V72.8027C31.1098 73.3448 30.6692 73.7852 30.1272 73.7852C29.5853 73.7852 29.1448 73.3447 29.1448 72.8027V71.5938ZM29.6448 72.0938V72.8027C29.6448 73.0686 29.8614 73.2852 30.1272 73.2852C30.3931 73.2852 30.6098 73.0685 30.6098 72.8027V72.0938H29.6448ZM49.6539 71.5938H51.6189V72.8027C51.6189 73.3448 51.1784 73.7852 50.6364 73.7852C50.0945 73.7852 49.6539 73.3448 49.6539 72.8027V71.5938ZM50.1539 72.0938V72.8027C50.1539 73.0685 50.3705 73.2852 50.6364 73.2852C50.9023 73.2852 51.1189 73.0685 51.1189 72.8027V72.0938H50.1539Z" fill="#3035C4"/>
<path d="M34.9395 68.9141H52.1015C52.5061 68.9141 52.834 68.5861 52.834 68.1816V51.873C52.834 51.4686 52.5061 51.1406 52.1015 51.1406H28.6625C28.258 51.1406 27.9299 51.4686 27.9299 51.873V68.1816C27.9299 68.5861 28.2579 68.9141 28.6625 68.9141H31.5923C31.9968 68.9141 32.3249 68.5861 32.3249 68.1816C32.3249 67.7772 31.9969 67.4492 31.5923 67.4492H29.3949V52.6055H51.369V67.4492H34.9395C34.535 67.4492 34.207 67.7772 34.207 68.1816C34.207 68.5861 34.535 68.9141 34.9395 68.9141V68.9141Z" fill="#3035C4"/>
<path fill-rule="evenodd" clip-rule="evenodd" d="M27.6799 51.873C27.6799 51.3304 28.1199 50.8906 28.6625 50.8906H52.1015C52.6442 50.8906 53.084 51.3305 53.084 51.873V68.1816C53.084 68.7242 52.6442 69.1641 52.1015 69.1641H34.9395C34.397 69.1641 33.957 68.7243 33.957 68.1816C33.957 67.639 34.397 67.1992 34.9395 67.1992H51.119V52.8555H29.6449V67.1992H31.5923C32.135 67.1992 32.5749 67.6391 32.5749 68.1816C32.5749 68.7243 32.1349 69.1641 31.5923 69.1641H28.6625C28.1198 69.1641 27.6799 68.7242 27.6799 68.1816V51.873ZM28.6625 51.3906C28.396 51.3906 28.1799 51.6067 28.1799 51.873V68.1816C28.1799 68.448 28.3959 68.6641 28.6625 68.6641H31.5923C31.8588 68.6641 32.0749 68.448 32.0749 68.1816C32.0749 67.9152 31.8589 67.6992 31.5923 67.6992H29.1449V52.3555H51.619V67.6992H34.9395C34.673 67.6992 34.457 67.9153 34.457 68.1816C34.457 68.448 34.673 68.6641 34.9395 68.6641H52.1015C52.3681 68.6641 52.584 68.448 52.584 68.1816V51.873C52.584 51.6066 52.3681 51.3906 52.1015 51.3906H28.6625Z" fill="#3035C4"/>
<path d="M46.8278 58.6109C47.2323 58.6109 47.5603 58.283 47.5603 57.8785V55.4995H49.1718C49.5764 55.4995 49.9043 55.1716 49.9043 54.7671C49.9043 54.3626 49.5764 54.0347 49.1718 54.0347H31.5924C31.1879 54.0347 30.8599 54.3626 30.8599 54.7671C30.8599 55.1716 31.1878 55.4995 31.5924 55.4995H46.0953V57.8785C46.0953 58.283 46.4232 58.6109 46.8278 58.6109Z" fill="#E6514A"/>
<path fill-rule="evenodd" clip-rule="evenodd" d="M30.6099 54.7671C30.6099 54.2245 31.0499 53.7847 31.5924 53.7847H49.1718C49.7144 53.7847 50.1543 54.2245 50.1543 54.7671C50.1543 55.3097 49.7144 55.7495 49.1718 55.7495H47.8103V57.8785C47.8103 58.4211 47.3703 58.8609 46.8278 58.8609C46.2852 58.8609 45.8453 58.4211 45.8453 57.8785V55.7495H31.5924C31.0497 55.7495 30.6099 55.3097 30.6099 54.7671ZM31.5924 54.2847C31.3259 54.2847 31.1099 54.5007 31.1099 54.7671C31.1099 55.0335 31.3258 55.2495 31.5924 55.2495H46.3453V57.8785C46.3453 58.1449 46.5613 58.3609 46.8278 58.3609C47.0943 58.3609 47.3103 58.1449 47.3103 57.8785V55.2495H49.1718C49.4383 55.2495 49.6543 55.0335 49.6543 54.7671C49.6543 54.5007 49.4383 54.2847 49.1718 54.2847H31.5924Z" fill="#E6514A"/>
<path d="M45.2649 44.9814C45.6694 44.9814 45.9975 44.6535 45.9975 44.249V41.3193C45.9975 40.9148 45.6695 40.5869 45.2649 40.5869H35.4986C35.0941 40.5869 34.7661 40.9148 34.7661 41.3193V44.249C34.7661 44.6535 35.094 44.9814 35.4986 44.9814H45.2649ZM36.2312 42.0518H44.5325V43.5166H36.2312V42.0518Z" fill="#E6514A"/>
<path fill-rule="evenodd" clip-rule="evenodd" d="M34.5161 41.3193C34.5161 40.7767 34.9561 40.3369 35.4986 40.3369H45.2649C45.8076 40.3369 46.2475 40.7768 46.2475 41.3193V44.249C46.2475 44.7916 45.8075 45.2314 45.2649 45.2314H35.4986C34.956 45.2314 34.5161 44.7916 34.5161 44.249V41.3193ZM35.4986 40.8369C35.2322 40.8369 35.0161 41.053 35.0161 41.3193V44.249C35.0161 44.5154 35.2321 44.7314 35.4986 44.7314H45.2649C45.5314 44.7314 45.7475 44.5154 45.7475 44.249V41.3193C45.7475 41.0529 45.5315 40.8369 45.2649 40.8369H35.4986ZM35.9812 41.8018H44.7825V43.7666H35.9812V41.8018ZM36.4812 42.3018V43.2666H44.2825V42.3018H36.4812Z" fill="#E6514A"/>
<path d="M71.5778 47.8872H65.756V45.1008C65.756 43.8161 64.7107 42.771 63.426 42.771H57.9128C57.5082 42.771 57.1803 43.0989 57.1803 43.5034C57.1803 43.9079 57.5082 44.2358 57.9128 44.2358H63.426C63.9029 44.2358 64.291 44.6239 64.291 45.1008V47.8872H57.9128C57.5082 47.8872 57.1803 48.2151 57.1803 48.6196C57.1803 49.0241 57.5082 49.352 57.9128 49.352H64.291V50.8163L62.7428 52.3934C62.6084 52.5303 62.533 52.7145 62.533 52.9064V57.3986C62.533 57.8031 62.8609 58.1311 63.2655 58.1311H66.7814C67.186 58.1311 67.514 57.8031 67.514 57.3986V52.9064C67.514 52.7145 67.4386 52.5303 67.3042 52.3934L65.756 50.8163V49.352H71.5778C72.657 49.352 73.535 50.2299 73.535 51.309V62.8514H71.0431C70.6385 62.8514 70.3105 63.1793 70.3105 63.5838C70.3105 63.9883 70.6385 64.3162 71.0431 64.3162H73.535V66.2463H57.9127C57.5081 66.2463 57.1802 66.5742 57.1802 66.9787C57.1802 67.3832 57.5081 67.7111 57.9127 67.7111H73.535V68.4221C73.535 69.5012 72.6569 70.379 71.5778 70.379H57.9127C57.5081 70.379 57.1802 70.7069 57.1802 71.1114C57.1802 71.5159 57.5081 71.8438 57.9127 71.8438H67.9154V72.8027C67.9154 74.0144 68.9012 75 70.1129 75C71.3246 75 72.3104 74.0144 72.3104 72.8027V71.7649C73.8465 71.4286 74.9999 70.0574 74.9999 68.422V51.309C74.9999 49.4222 73.4647 47.8872 71.5778 47.8872V47.8872ZM66.0488 56.6662H63.9979V53.2059L65.0234 52.1613L66.0489 53.2059V56.6662H66.0488ZM70.8453 72.8026C70.8453 73.2065 70.5167 73.5351 70.1128 73.5351C69.7089 73.5351 69.3803 73.2065 69.3803 72.8026V71.8437H70.8452V72.8026H70.8453Z" fill="#3035C4"/>
<path fill-rule="evenodd" clip-rule="evenodd" d="M56.9303 43.5034C56.9303 42.9608 57.3702 42.521 57.9128 42.521H63.426C64.8488 42.521 66.006 43.678 66.006 45.1008V47.6372H71.5778C73.6028 47.6372 75.2499 49.2841 75.2499 51.309V68.422C75.2499 70.1071 74.1095 71.5297 72.5604 71.9604V72.8027C72.5604 74.1524 71.4627 75.25 70.1129 75.25C68.7631 75.25 67.6654 74.1524 67.6654 72.8027V72.0938H57.9127C57.3701 72.0938 56.9302 71.654 56.9302 71.1114C56.9302 70.5688 57.3701 70.129 57.9127 70.129H71.5778C72.5189 70.129 73.285 69.3631 73.285 68.4221V67.9611H57.9127C57.3701 67.9611 56.9302 67.5213 56.9302 66.9787C56.9302 66.4361 57.3701 65.9963 57.9127 65.9963H73.285V64.5662H71.0431C70.5004 64.5662 70.0605 64.1264 70.0605 63.5838C70.0605 63.0412 70.5004 62.6014 71.0431 62.6014H73.285V51.309C73.285 50.368 72.519 49.602 71.5778 49.602H66.006V50.7141L67.4826 52.2182C67.6628 52.4018 67.764 52.649 67.764 52.9064V57.3986C67.764 57.9412 67.3241 58.3811 66.7814 58.3811H63.2655C62.7229 58.3811 62.283 57.9412 62.283 57.3986V52.9064C62.283 52.649 62.3841 52.4019 62.5643 52.2182L64.041 50.7141V49.602H57.9128C57.3702 49.602 56.9303 49.1622 56.9303 48.6196C56.9303 48.077 57.3702 47.6372 57.9128 47.6372H64.041V45.1008C64.041 44.762 63.7649 44.4858 63.426 44.4858H57.9128C57.3702 44.4858 56.9303 44.046 56.9303 43.5034ZM57.9128 43.021C57.6463 43.021 57.4303 43.237 57.4303 43.5034C57.4303 43.7698 57.6463 43.9858 57.9128 43.9858H63.426C64.041 43.9858 64.541 44.4858 64.541 45.1008V48.1372H57.9128C57.6463 48.1372 57.4303 48.3532 57.4303 48.6196C57.4303 48.886 57.6463 49.102 57.9128 49.102H64.541V50.9185L62.9212 52.5685C62.8327 52.6587 62.783 52.7801 62.783 52.9064V57.3986C62.783 57.665 62.999 57.8811 63.2655 57.8811H66.7814C67.048 57.8811 67.264 57.665 67.264 57.3986V52.9064C67.264 52.7801 67.2143 52.6587 67.1258 52.5685L65.506 50.9185V49.102H71.5778C72.7951 49.102 73.785 50.0918 73.785 51.309V63.1014H71.0431C70.7765 63.1014 70.5605 63.3174 70.5605 63.5838C70.5605 63.8502 70.7765 64.0662 71.0431 64.0662H73.785V66.4963H57.9127C57.6462 66.4963 57.4302 66.7123 57.4302 66.9787C57.4302 67.2451 57.6462 67.4611 57.9127 67.4611H73.785V68.4221C73.785 69.6393 72.795 70.629 71.5778 70.629H57.9127C57.6462 70.629 57.4302 70.845 57.4302 71.1114C57.4302 71.3778 57.6462 71.5938 57.9127 71.5938H68.1654V72.8027C68.1654 73.8763 69.0392 74.75 70.1129 74.75C71.1866 74.75 72.0604 73.8763 72.0604 72.8027V71.5638L72.2569 71.5207C73.6809 71.2089 74.7499 69.9373 74.7499 68.422V51.309C74.7499 49.5603 73.3267 48.1372 71.5778 48.1372H65.506V45.1008C65.506 43.9542 64.5727 43.021 63.426 43.021H57.9128ZM65.0234 51.8045L66.2989 53.1037V56.9162H63.7479V53.1037L65.0234 51.8045ZM64.2479 53.3081V56.4162H65.7989V53.3081L65.0234 52.5182L64.2479 53.3081ZM69.1303 71.5937H71.0952V72.5526L71.0953 72.8026C71.0953 73.3447 70.6547 73.7851 70.1128 73.7851C69.5709 73.7851 69.1303 73.3447 69.1303 72.8026V71.5937ZM70.5952 72.8124V72.0937H69.6303V72.8026C69.6303 73.0684 69.8469 73.2851 70.1128 73.2851C70.3754 73.2851 70.59 73.0737 70.5952 72.8124Z" fill="#3035C4"/>
<path d="M57.9127 64.3164H67.6582C68.0628 64.3164 68.3907 63.9885 68.3907 63.584C68.3907 63.1795 68.0628 62.8516 67.6582 62.8516H57.9127C57.5081 62.8516 57.1802 63.1795 57.1802 63.584C57.1802 63.9885 57.5081 64.3164 57.9127 64.3164Z" fill="#3035C4"/>
<path fill-rule="evenodd" clip-rule="evenodd" d="M56.9302 63.584C56.9302 63.0414 57.3701 62.6016 57.9127 62.6016H67.6582C68.2008 62.6016 68.6407 63.0414 68.6407 63.584C68.6407 64.1266 68.2008 64.5664 67.6582 64.5664H57.9127C57.3701 64.5664 56.9302 64.1266 56.9302 63.584ZM57.9127 63.1016C57.6462 63.1016 57.4302 63.3176 57.4302 63.584C57.4302 63.8504 57.6462 64.0664 57.9127 64.0664H67.6582C67.9247 64.0664 68.1407 63.8504 68.1407 63.584C68.1407 63.3176 67.9247 63.1016 67.6582 63.1016H57.9127Z" fill="#3035C4"/>
</g>
<defs>
<clipPath id="clip0_2139_1367">
<rect width="50" height="50" fill="white" transform="translate(25 25)"/>
</clipPath>
</defs>
</svg>
